<svg xmlns="http://www.w3.org/2000/svg" xmlns:xlink="http://www.w3.org/1999/xlink" height="100" width="85"><defs><linearGradient id="e"><stop offset="0" stop-color="#4d4d4d"/><stop offset=".4945" stop-color="#ccc"/><stop offset="1" stop-color="#4d4d4d"/></linearGradient><linearGradient id="f"><stop offset="0" stop-color="#1a1a1a"/><stop offset=".5" stop-color="#999"/><stop offset="1" stop-color="#1a1a1a"/></linearGradient><linearGradient id="d"><stop offset="0" stop-color="gray"/><stop offset=".4945" stop-color="#f9f9f9"/><stop offset="1" stop-color="#999"/></linearGradient><linearGradient id="a"><stop offset="0" stop-color="gray"/><stop offset="1" stop-color="#e6e6e6"/></linearGradient><linearGradient gradientUnits="userSpaceOnUse" y2="43.9" x2="80.2881" y1="93.5261" x1="122.0329" id="p" xlink:href="#a" gradientTransform="matrix(.96377 0 0 .97955 -4.4152 -1.5576)"/><linearGradient id="c"><stop offset="0" stop-color="#999"/><stop offset=".4945" stop-color="#f9f9f9"/><stop offset="1" stop-color="#999"/></linearGradient><linearGradient y2="44.9884" x2="97.6697" y1="75.2557" x1="97.6697" gradientTransform="matrix(.1002 0 0 1.52707 39.7455 26.5275)" gradientUnits="userSpaceOnUse" id="l" xlink:href="#b"/><linearGradient id="b"><stop offset="0" stop-color="#333"/><stop offset=".4388" stop-color="#ccc"/><stop offset="1" stop-color="#666"/></linearGradient><linearGradient xlink:href="#b" id="m" gradientUnits="userSpaceOnUse" gradientTransform="matrix(.1002 0 0 1.52709 119.9523 26.5265)" x1="97.6697" y1="75.2557" x2="97.6697" y2="44.9884"/><linearGradient xlink:href="#d" id="g" gradientUnits="userSpaceOnUse" gradientTransform="matrix(.25018 0 0 .71267 63.0648 46.0073)" x1="96.9693" y1="126.0413" x2="96.9693" y2="72.1679"/><linearGradient xlink:href="#e" id="h" gradientUnits="userSpaceOnUse" gradientTransform="matrix(.17755 0 0 .70118 90.6276 -158.8787)" x1="96.9693" y1="126.0413" x2="96.9693" y2="72.1679"/><linearGradient xlink:href="#f" id="n" gradientUnits="userSpaceOnUse" gradientTransform="matrix(.10183 0 0 1.50246 82.414 -179.567)" x1="97.6697" y1="75.2557" x2="97.6697" y2="44.9884"/><linearGradient xlink:href="#c" id="i" gradientUnits="userSpaceOnUse" gradientTransform="matrix(.17629 0 0 .77037 44.8017 41.8419)" x1="96.9693" y1="126.0413" x2="96.9693" y2="72.1679"/><filter height="1.2176" y="-.1088" width="1.2176" x="-.1088" id="k" color-interpolation-filters="sRGB"><feGaussianBlur stdDeviation="1.6146"/></filter><filter height="1.1173" y="-.0587" width="1.0837" x="-.0418" id="o" color-interpolation-filters="sRGB"><feGaussianBlur stdDeviation="1.1913"/></filter></defs><g transform="translate(-47.1973 -41.523)"><path fill="url(#g)" d="M68.9189 97.4508h42.8567v38.2215H68.9189z"/><path transform="rotate(90)" fill="url(#h)" d="M94.7822-108.2643h30.4154v37.6056H94.7822z"/><path id="j" d="M51.5726 97.4508h16.6033a10.7041 10.7041 13.884 014.987 1.2327l12.9182 6.8018a4.4026 4.4026 58.7725 012.3515 3.8785l.0715 18.3854a4.349 4.349 121.0919 01-2.3345 3.8714l-11.3293 5.921a10.7747 10.7747 166.2034 01-4.9907 1.2256h-18.277a2.6458 2.6458 45 01-2.6458-2.6459v-36.0247a2.6458 2.6458 135 012.6458-2.6458z" fill="url(#i)" fill-opacity="1" stroke="none" stroke-width=".5292" stroke-linecap="round" stroke-linejoin="round"/><use xlink:href="#j" transform="matrix(-1 0 0 1 179.084 0)" width="100%" height="100%" stroke-width="1.0292"/><circle transform="matrix(.81763 0 0 .84673 9.869 59.167)" cx="97.345" cy="69.2973" r="17.8065" fill="#666" filter="url(#k)"/><ellipse cy="116.0218" cx="89.4615" rx="15.2594" ry="15.5151" fill="#f2f2f2"/><path d="M89.8587 108.9038v1.6208a.5292.5292 135 01-.5292.5291h-11.545c-.2923 0-.7868-.009-1.0313.1438a.964.964 0 00-.3157.3232c-.1479.248-.1379.7412-.1379 1.0334v6.9353c0 .2922-.01.7854.138 1.0334a.9637.9637 0 00.3156.3231c.2445.1531.739.1438 1.0313.1438h11.545a.5292.5292 45 01.5292.5292v1.6208a.303.303 29.7925 00.4563.2612l5.6007-3.2878a20786.757 20786.757 149.5865 01.9127-.5358l5.6006-3.2875a.3106.3106 90.0015 000-.5357l-5.6006-3.2879-6.5134-3.8236a.303.303 150.2075 00-.4563.2612z" fill="#4d4d4d"/><path fill="url(#l)" d="M47.1973 94.6956H51.99v46.8267h-4.7927z"/><path fill="url(#m)" d="M127.4045 94.6956h4.7928v46.8274h-4.7928z"/><path transform="rotate(90)" fill="url(#n)" d="M89.9878-112.4975h4.8712v46.072h-4.8712z"/><rect transform="matrix(.6217 0 0 1.03051 33.8654 -1.3095)" width="68.3492" height="48.7392" x="55.2869" y="43.523" ry="1.6895" fill-opacity=".5" filter="url(#o)"/><rect ry="1.6895" y="41.523" x="55.2869" height="48.7392" width="68.3492" fill="url(#p)"/></g></svg>